<?xml version="1.0" encoding="utf-8"?>
<!-- Generator: Adobe Illustrator 19.0.0, SVG Export Plug-In . SVG Version: 6.00 Build 0)  -->
<svg version="1.1" id="Layer_1" xmlns="http://www.w3.org/2000/svg" xmlns:xlink="http://www.w3.org/1999/xlink" x="0px" y="0px"
	 viewBox="0 0 200 200" style="enable-background:new 0 0 200 200;" xml:space="preserve">
<style type="text/css">
	.st0{fill:#FFFFFF;}
	.st1{fill:none;}
</style>
<path id="XMLID_18_" class="st0" d="M118.5,20.9v4.5c37.5,8.4,65.6,42,65.6,82c0,46.4-37.7,84.1-84.1,84.1
	c-46.4,0-84.1-37.7-84.1-84.1c0-42.4,31.6-77.6,72.5-83.3v-4.4c-43.3,5.7-76.9,42.9-76.9,87.7c0,48.8,39.7,88.5,88.5,88.5
	c48.8,0,88.5-39.7,88.5-88.5C188.5,65,158.4,29.4,118.5,20.9z"/>
<path id="XMLID_17_" class="st0" d="M118.5,32.5v0.6c33.3,8.3,58.1,38.5,58.1,74.3c0,42.2-34.4,76.6-76.6,76.6
	c-42.2,0-76.6-34.4-76.6-76.6c0-38.3,28.2-70.1,65-75.7v-0.6c-37.1,5.6-65.6,37.7-65.6,76.3c0,42.6,34.6,77.2,77.2,77.2
	c42.6,0,77.2-34.6,77.2-77.2C177.2,71.2,152.2,40.8,118.5,32.5z"/>
<path id="XMLID_16_" class="st0" d="M138.5,139.8c-1.4-0.3-2.9-0.7-4.6-1.2c-8.7-2.4-20.5-5.7-30.3,2c2.3,0.3,4,1,5.1,1.8
	c0.9,0.6,1.5,1.3,1.9,1.7c0.2-0.3,0.9-1,2.1-1.7c1.6-0.9,4.2-1.9,8-1.9c2.8,0,5.7,1,9.2,1.9c3.4,0.9,7.8,1.8,12.3,1.8
	c5.1,0,10.2,0,13.5,0V140C153.2,140.4,145.7,141.4,138.5,139.8z"/>
<path id="XMLID_15_" class="st0" d="M65.9,139.8c1.4-0.3,2.9-0.7,4.6-1.2c8.7-2.4,20.5-5.7,30.3,2c-2.3,0.3-4,1-5.1,1.8
	c-0.9,0.6-1.5,1.3-1.9,1.7c-0.2-0.3-0.9-1-2.1-1.7c-1.6-0.9-4.2-1.9-8-1.9c-2.8,0-5.7,1-9.2,1.9c-3.4,0.9-7.8,1.8-12.3,1.8
	c-5.1,0-10.2,0-13.5,0V140C51.1,140.4,58.7,141.4,65.9,139.8z"/>
<path id="XMLID_14_" class="st0" d="M154.1,146c-3.2,0-7.5,0-11.8,0c-3.9,0-8-0.6-12.5-1.8c-0.6-0.2-1.1-0.3-1.7-0.5
	c-2.7-0.8-5.1-1.4-7.3-1.4c-3.8,0-6.3,1-7.7,1.8c-1.2,0.7-1.8,1.4-2,1.6l-0.4,0.5l-0.4-0.5c-0.3-0.4-0.9-1-1.8-1.6
	c-1.3-0.9-3-1.5-4.9-1.7c-0.4,0-0.8-0.1-1.2-0.1l-0.1,0l-0.3,0c-0.5,0-0.9,0.1-1.3,0.1c-1.8,0.3-3.3,0.8-4.5,1.7
	c-0.9,0.6-1.5,1.2-1.8,1.6l-0.4,0.5l-0.4-0.5c-0.2-0.2-0.8-0.9-2-1.6c-1.4-0.8-3.9-1.8-7.7-1.8c-2.2,0-4.6,0.7-7.3,1.4
	c-0.6,0.2-1.1,0.3-1.7,0.5c-4.4,1.2-8.6,1.8-12.5,1.8c-2.6,0-5.2,0-7.6,0l-8.8,0l-0.4,0v2h113.1v-2c-0.4,0-0.8,0-1.4,0L154.1,146z"
	/>
<path id="XMLID_13_" class="st1" d="M107.5,26.8c-0.6-2.5-1-5.1-3.6-6.4c-0.3-0.2-0.5-0.7-0.8-1.2c-0.3,0.6-0.5,1.2-0.8,1.5
	c-2.6,1.4-2.9,3.8-3.4,6.3c-0.4,2-1,4-1.4,6.1c-0.1,0.4-0.3,0.9-0.2,1.3c1,3,0.7,5.9-0.2,8.9c-0.1,0.2,0.2,0.5,0.4,1.2
	c0.4-1.5,0.8-2.6,0.9-3.7c0.2-2.2,1.7-3.9,3.8-4.1c2.6-0.2,4.7,1.2,5.2,3.4c0.3,1.3,0.4,2.7,0.5,4.1c0.5-0.6,0.7-1.2,0.7-1.9
	c0-2.6-0.6-5.3,0.6-7.9c0.2-0.4-0.1-1-0.2-1.5C108.5,30.9,108,28.8,107.5,26.8z"/>
<path id="XMLID_12_" class="st1" d="M101.8,16.1c0.9-0.1,1.5,0,1.7-0.3c0.7-0.7,1.8-1.4,1.9-2.2c0.1-0.6-1-2-1.6-2.1
	c-1.2-0.1-2.6,0.4-3.7,1c-0.4,0.2-0.7,1.6-0.5,1.9C100.2,15.2,101.2,15.7,101.8,16.1z"/>
<path id="XMLID_11_" class="st1" d="M101.8,16.1c0.9-0.1,1.5,0,1.7-0.3c0.7-0.7,1.8-1.4,1.9-2.2c0.1-0.6-1-2-1.6-2.1
	c-1.2-0.1-2.6,0.4-3.7,1c-0.4,0.2-0.7,1.6-0.5,1.9C100.2,15.2,101.2,15.7,101.8,16.1z"/>
<path id="XMLID_10_" class="st1" d="M107.5,26.8c-0.6-2.5-1-5.1-3.6-6.4c-0.3-0.2-0.5-0.7-0.8-1.2c-0.3,0.6-0.5,1.2-0.8,1.5
	c-2.6,1.4-2.9,3.8-3.4,6.3c-0.4,2-1,4-1.4,6.1c-0.1,0.4-0.3,0.9-0.2,1.3c1,3,0.7,5.9-0.2,8.9c-0.1,0.2,0.2,0.5,0.4,1.2
	c0.4-1.5,0.8-2.6,0.9-3.7c0.2-2.2,1.7-3.9,3.8-4.1c2.6-0.2,4.7,1.2,5.2,3.4c0.3,1.3,0.4,2.7,0.5,4.1c0.5-0.6,0.7-1.2,0.7-1.9
	c0-2.6-0.6-5.3,0.6-7.9c0.2-0.4-0.1-1-0.2-1.5C108.5,30.9,108,28.8,107.5,26.8z"/>
<path id="XMLID_9_" class="st1" d="M101.8,16.1c0.9-0.1,1.5,0,1.7-0.3c0.7-0.7,1.8-1.4,1.9-2.2c0.1-0.6-1-2-1.6-2.1
	c-1.2-0.1-2.6,0.4-3.7,1c-0.4,0.2-0.7,1.6-0.5,1.9C100.2,15.2,101.2,15.7,101.8,16.1z"/>
<path id="XMLID_8_" class="st1" d="M107.5,26.8c-0.6-2.5-1-5.1-3.6-6.4c-0.3-0.2-0.5-0.7-0.8-1.2c-0.3,0.6-0.5,1.2-0.8,1.5
	c-2.6,1.4-2.9,3.8-3.4,6.3c-0.4,2-1,4-1.4,6.1c-0.1,0.4-0.3,0.9-0.2,1.3c1,3,0.7,5.9-0.2,8.9c-0.1,0.2,0.2,0.5,0.4,1.2
	c0.4-1.5,0.8-2.6,0.9-3.7c0.2-2.2,1.7-3.9,3.8-4.1c2.6-0.2,4.7,1.2,5.2,3.4c0.3,1.3,0.4,2.7,0.5,4.1c0.5-0.6,0.7-1.2,0.7-1.9
	c0-2.6-0.6-5.3,0.6-7.9c0.2-0.4-0.1-1-0.2-1.5C108.5,30.9,108,28.8,107.5,26.8z"/>
<path id="XMLID_7_" class="st1" d="M106.8,32.2c-0.6-2.5-0.9-5.1-3.5-6.5c-0.3-0.2-0.5-0.7-0.8-1.2c-0.3,0.5-0.5,1.2-0.9,1.4
	c-2.6,1.3-2.9,3.8-3.4,6.3c-0.4,2-1,4-1.5,6.1c-0.1,0.4-0.3,0.9-0.2,1.3c1,3,0.6,5.9-0.3,8.9c-0.1,0.2,0.2,0.5,0.4,1.2
	c0.4-1.5,0.8-2.6,1-3.7c0.2-2.1,1.8-3.9,3.8-4.1c2.6-0.2,4.7,1.2,5.1,3.5c0.3,1.3,0.3,2.7,0.5,4.1c0.5-0.6,0.7-1.2,0.7-1.9
	c0-2.7-0.5-5.3,0.7-7.9c0.2-0.4-0.1-1-0.2-1.5C107.8,36.2,107.3,34.2,106.8,32.2z"/>
<path id="XMLID_6_" class="st1" d="M101.2,21.4c0.9-0.1,1.5,0,1.7-0.2c0.7-0.7,1.8-1.4,1.9-2.2c0.1-0.6-1-2-1.6-2.1
	c-1.2-0.1-2.6,0.4-3.7,1c-0.4,0.2-0.7,1.6-0.5,1.9C99.6,20.5,100.6,20.9,101.2,21.4z"/>
<path id="XMLID_2_" class="st0" d="M124.7,133.4C124.7,133.3,124.7,133.3,124.7,133.4L124.7,133.4c-0.7-1.1-1.4-2.2-2.3-3.1
	c-2.3-2.3-3.7-4.8-3.6-8.1c0.1-2,0-4.1-0.1-6.1c-0.1-1.7-0.4-3.4-0.7-5c-0.3-1.8-0.7-3.6-1.1-5.5c-0.2-0.8,0-1.4,1-1.7
	c0.4-0.1,0.7-1.1,0.6-1.5c-1.3-6.9-2.9-13.7-5.8-20c-1.3-2.8-1.5-5.3-1.2-8.1c0-0.3,0-0.7,0-1c-0.5-3.4,0.9-6.6,1.6-9.8
	c0.4-1.9,0.4-3.8,0.6-5.7c0.1-1.4,0-2.9,0.5-4.1c1.3-3.3,1.7-6.5,0.4-9.9c-0.6-1.5-0.9-3.2-1-4.8c-0.2-4.2-1.4-8.2-4-11.4
	c-1.6-1.9-1.6-4.2-2.2-6.2c-0.5-1.7-0.9-3.4-1.6-5c-0.2-0.5,0-1.3,0.1-1.9c0.3-1,1-2,1.1-3c0.3-2.6-1.4-5.6-3.8-6.7
	c-2.1-0.9-5.4-0.2-7.1,1.6c-1.8,1.8-2.6,5.4-0.9,7.4c2.3,2.5,1.9,4.9,1.5,7.6c-0.4,2.9-0.5,5.7-2.2,8.4c-1.2,1.8-2,4.1-2.3,6.3
	c-0.6,3.6-1.5,7-2.6,10.5c-0.6,1.8-0.3,3.9-0.3,5.8c0.1,2.2,0.5,4.5,0.5,6.7c-0.1,2,0.3,3.9,1.1,5.8c1,2.3,1.8,4.7,2.3,7.1
	c0.4,2.2,0.5,4.5,0.5,6.8c0,1.1,0.1,2.5-0.5,3.4c-2.5,4.3-3.2,9.1-4.6,13.8c-0.8,2.7-0.9,5.6-1.2,8.4c-0.1,0.7,0.4,1.4,0.6,2.1
	c0.2,0,0.4,0,0.6,0.1c-0.2,0.7-0.2,1.5-0.5,2.1c-2.3,4.2-2.5,8.9-3,13.5c-0.4,3.5-1.7,6.3-4.7,8.5c-0.9,0.6-1.5,1.7-2,2.7
	c-0.6,1.1-0.5,1.7,0.1,2c0.4,0.5,1.6,1.2,4.1,0.1l0,0c1.8-0.7,3.3-2.2,4.9-3.4c0.3-0.2,0.5-0.8,0.4-1.2c-1.2-4.3,1.1-7.7,2.7-11.3
	c0.6-1.4,1.4-2.8,1.6-4.3c0.3-1.9,1.1-3.5,1.9-5.2c1-2.2,2.4-3.4,4.4-3.4l3.7-7l4.1,6.7l1.7-0.1c0,0,0-0.1,0-0.2
	c0.4-0.1,0.8-0.1,1.2-0.2c0.9,2,2.5,3.8,2.6,5.8c0.3,3.6,1.3,7,2.5,10.3c0.7,2,1.1,4.4,0.8,6.6c-0.3,2.6-0.5,2.8,1.8,4.2
	c0.3,0.2,0.6,0.4,0.8,0.6c0.5,0.6,0.9,1.1,1.3,1.5l0,0c0,0,0.1,0,0.1,0.1c0.4,0.2,1.6,0.8,2.8,0.8c0,0,0,0,0,0h0
	c0.9,0,1.8-0.2,2.3-1.1c0,0,0-0.1,0.1-0.1c0.2-0.3,0.3-0.6,0.3-0.9c0,0,0,0,0-0.1C124.7,133.4,124.7,133.4,124.7,133.4z M99.5,17.8
	c1.2-0.6,2.5-1,3.7-1c0.6,0,1.7,1.4,1.6,2.1c-0.1,0.8-1.1,1.6-1.9,2.2c-0.3,0.2-0.9,0.1-1.7,0.2c-0.6-0.4-1.6-0.9-2.2-1.7
	C98.8,19.4,99.1,18,99.5,17.8z M108.4,39.8c-1.3,2.6-0.7,5.2-0.7,7.9c0,0.6-0.3,1.3-0.7,1.9c-0.2-1.4-0.2-2.7-0.5-4.1
	c-0.4-2.3-2.6-3.7-5.1-3.5c-2,0.2-3.6,1.9-3.8,4.1c-0.1,1.1-0.5,2.1-1,3.7c-0.2-0.7-0.4-1-0.4-1.2c0.9-2.9,1.2-5.9,0.3-8.9
	c-0.1-0.4,0.1-0.9,0.2-1.3c0.5-2,1.1-4,1.5-6.1c0.5-2.5,0.9-4.9,3.4-6.3c0.4-0.2,0.6-0.9,0.9-1.4c0.3,0.5,0.5,1,0.8,1.2
	c2.6,1.4,3,4,3.5,6.5c0.5,2,1,4.1,1.4,6.1C108.4,38.8,108.6,39.4,108.4,39.8z"/>
</svg>
